<svg version="1.2" xmlns="http://www.w3.org/2000/svg" viewBox="0 0 1024 1024" width="1024" height="1024">
	<path id="Path 0" fill-rule="evenodd" class="s0" d="m251 990l-54-8-55-18-44-27-13-22v-13l7-15 44-42 19-36 35-137 23-56 17-24 32-29 58-27 27-5h47l36 9 25 12 58-60 22-13 144 144-5 13-74 76 9 70-17 68-35 54-53 41-43 18-47 12-104 15zm260-391l47 48 23-23-49-47zm-183 11l-28 15-29 33-15 41-34 139-38 64 45 12 54 3 72-5 82-18 39-18 33-28 18-30 8-36-1-28-7-26-18-30-46-48-46-37-19-7-42-3zm495-551l46 7 21 11 22 21 16 29 7 46-12 41-167 316-6 6h-8l-176-94 26-57 152-282 19-20 22-14zm-13 65l-17 15-145 276 70 39 10-3 142-266 3-27-7-19-18-15-25-4zm-636 46l241 82 3 11-3 10-58 89 164 53 6 18-6 10-13 4-4-4-247-22-28-6-5-11 3-11 71-97-137-101v-17z"/>
</svg>